<svg xmlns="http://www.w3.org/2000/svg" aria-hidden="true" style="position:absolute;width:0;height:0;overflow:hidden">
  <defs>
    <symbol id="icon__baseline-account" viewBox="0 0 33 32">
      <path d="M4.667 6.667v18.667a2.666 2.666 0 0 0 2.667 2.667h18.667c1.467 0 2.667-1.2 2.667-2.667V6.667C28.668 5.2 27.468 4 26.001 4H7.334c-1.48 0-2.667 1.2-2.667 2.667zm16 5.333c0 2.213-1.787 4-4 4s-4-1.787-4-4 1.787-4 4-4 4 1.787 4 4zm-12 10.667c0-2.667 5.333-4.133 8-4.133s8 1.467 8 4.133V24h-16v-1.333z" />
    </symbol>
    <symbol id="icon__baseline-date_range" viewBox="0 0 32 32">
      <path d="M12 14.667H9.333v2.667H12v-2.667zm5.333 0h-2.667v2.667h2.667v-2.667zm5.334 0H20v2.667h2.667v-2.667zm2.666-9.334H24V2.666h-2.667v2.667H10.666V2.666H7.999v2.667H6.666c-1.48 0-2.653 1.2-2.653 2.667L4 26.667a2.666 2.666 0 0 0 2.667 2.667h18.667c1.467 0 2.667-1.2 2.667-2.667V8c0-1.467-1.2-2.667-2.667-2.667zm0 21.334H6.666V12h18.667v14.667z" />
    </symbol>
    <symbol id="icon__baseline-dolar" viewBox="0 0 32 32">
      <path fill="#fff" d="M8.828 3.862h14.345a3.31 3.31 0 0 1 3.31 3.31v14.345a3.31 3.31 0 0 1-3.31 3.31H8.828a3.31 3.31 0 0 1-3.31-3.31V7.172a3.31 3.31 0 0 1 3.31-3.31z" />
      <path d="M8.828 3.862a3.31 3.31 0 0 0-3.31 3.31v14.345a3.31 3.31 0 0 0 3.31 3.31h14.345a3.31 3.31 0 0 0 3.31-3.31V7.172a3.31 3.31 0 0 0-3.31-3.31H8.828zm5.38 8.606c0 .652.501 1.071 2.06 1.476s3.226 1.071 3.226 3.021c0 1.407-1.064 2.183-2.403 2.437v1.476h-2.059v-1.49c-1.318-.281-2.444-1.126-2.526-2.629h1.51c.076.81.632 1.442 2.046 1.442 1.517 0 1.854-.755 1.854-1.229 0-.638-.343-1.243-2.059-1.654-1.915-.46-3.227-1.249-3.227-2.835 0-1.325 1.071-2.19 2.403-2.478V8.522h2.059v1.503c1.435.35 2.156 1.435 2.204 2.616h-1.517c-.041-.858-.494-1.442-1.716-1.442-1.16 0-1.854.522-1.854 1.27z" />
    </symbol>
    <symbol id="icon__baseline-email" viewBox="0 0 33 32">
      <path d="M27.333 5.333H6A2.663 2.663 0 0 0 3.347 8l-.013 16c0 1.467 1.2 2.667 2.667 2.667h21.333c1.467 0 2.667-1.2 2.667-2.667V8c0-1.467-1.2-2.667-2.667-2.667zm0 5.334-10.667 6.667-10.667-6.667V8l10.667 6.667L27.333 8v2.667z" />
    </symbol>
    <symbol id="icon__baseline-home" viewBox="0 0 32 32">
      <path fill="#fff" d="M10.105 5.895h11.789c.93 0 1.684.754 1.684 1.684v11.789c0 .93-.754 1.684-1.684 1.684H10.105c-.93 0-1.684-.754-1.684-1.684V7.579c0-.93.754-1.684 1.684-1.684z" />
      <path d="M10.105 5.895c-.93 0-1.684.754-1.684 1.684v11.789c0 .93.754 1.684 1.684 1.684h11.789c.93 0 1.684-.754 1.684-1.684V7.579c0-.93-.754-1.684-1.684-1.684H10.105zm4.884 8.52v3.269h-2.526v-4.359h-1.516L16 8.421l5.053 4.904h-1.516v4.359h-2.526v-3.269H14.99z" />
    </symbol>
    <symbol id="icon__baseline-lock" viewBox="0 0 33 32">
      <path d="M24.667 10.667h-1.333V8c0-3.68-2.987-6.667-6.667-6.667S10 4.32 10 8v2.667H8.667A2.675 2.675 0 0 0 6 13.334v13.333c0 1.467 1.2 2.667 2.667 2.667h16c1.467 0 2.667-1.2 2.667-2.667V13.334c0-1.467-1.2-2.667-2.667-2.667zm-8 12C15.2 22.667 14 21.467 14 20s1.2-2.667 2.667-2.667c1.467 0 2.667 1.2 2.667 2.667s-1.2 2.667-2.667 2.667zm4.133-12h-8.267V8c0-2.28 1.853-4.133 4.133-4.133S20.799 5.72 20.799 8v2.667z" />
    </symbol>
    <symbol id="icon__baseline-timeline" viewBox="0 0 32 32">
      <path d="M6.667 4h18.667a2.667 2.667 0 0 1 2.667 2.667v18.667a2.667 2.667 0 0 1-2.667 2.667H6.667A2.667 2.667 0 0 1 4 25.334V6.667A2.667 2.667 0 0 1 6.667 4zm16.969 10.222c.933 0 1.697-.8 1.697-1.778s-.764-1.778-1.697-1.778-1.697.8-1.697 1.778c0 .16.017.311.059.453l-3.012 3.165c-.136-.045-.289-.062-.441-.062s-.305.018-.441.062l-2.164-2.267c.042-.142.059-.302.059-.462 0-.978-.764-1.778-1.697-1.778s-1.697.8-1.697 1.778c0 .16.017.32.059.462l-3.869 4.044a1.396 1.396 0 0 0-.433-.062c-.933 0-1.697.8-1.697 1.778s.764 1.778 1.697 1.778 1.697-.8 1.697-1.778c0-.16-.017-.311-.059-.453l3.861-4.053c.136.044.288.062.441.062s.305-.018.441-.062l2.164 2.267a1.653 1.653 0 0 0-.059.462c0 .978.764 1.778 1.697 1.778s1.697-.8 1.697-1.778c0-.16-.017-.32-.059-.462l3.021-3.156c.136.044.28.062.433.062z" style="fill:var(--color4, #6e78e8)"/>
    </symbol>
    <symbol id="icon__btn-plus" viewBox="0 0 32 32">
      <path d="M25.514 13.405c0 5.254-4.259 9.513-9.514 9.513s-9.514-4.259-9.514-9.514C6.486 8.15 10.745 3.89 16 3.89s9.514 4.259 9.514 9.514z" />
      <path stroke="#fff" stroke-width=".865" d="M16 9.081v8.649M11.676 13.405h8.649" style="stroke:var(--color3, #fff)"/>
    </symbol>
    <symbol id="icon__btn-minus" viewBox="0 0 32 32">
      <path d="M25.514 13.405c0 5.254-4.259 9.513-9.514 9.513s-9.514-4.259-9.514-9.514C6.486 8.15 10.745 3.89 16 3.89s9.514 4.259 9.514 9.514z" />
      <path stroke="#fff" stroke-width=".865" d="M11.676 13.405h8.649" style="stroke:var(--color3, #fff)"/>
    </symbol>
    <symbol id="icon__close" viewBox="0 0 32 32">
      <path stroke-width="1.778" d="m1.778 1.778 28.444 28.444M1.778 30.222 30.222 1.778"/>
    </symbol>
    <symbol id="icon__edit" viewBox="0 0 32 32">
<path stroke-linejoin="round" stroke-linecap="round" stroke-miterlimit="4" stroke-width="2.7429" d="M24 13.334l-5.333-5.333M3.333 28.667l4.512-0.502c0.551-0.061 0.827-0.092 1.085-0.175 0.229-0.074 0.446-0.178 0.647-0.311 0.226-0.149 0.422-0.345 0.814-0.737l17.608-17.608c1.473-1.473 1.473-3.861 0-5.333s-3.861-1.473-5.333 0l-17.608 17.608c-0.392 0.392-0.588 0.588-0.737 0.814-0.132 0.201-0.237 0.418-0.311 0.647-0.083 0.258-0.114 0.533-0.175 1.085l-0.501 4.513z"></path>
</symbol>
    <symbol id="icon__exit" viewBox="0 0 32 32">
      <path d="M20.051 23.237h2.499v4.997a3.752 3.752 0 0 1-3.748 3.748H3.748A3.752 3.752 0 0 1 0 28.234V3.748A3.752 3.752 0 0 1 3.748 0h15.054a3.752 3.752 0 0 1 3.748 3.748v4.997h-2.499V3.748a1.25 1.25 0 0 0-1.249-1.249H3.748a1.25 1.25 0 0 0-1.249 1.249v24.486a1.25 1.25 0 0 0 1.249 1.249h15.054a1.25 1.25 0 0 0 1.249-1.249v-4.997zm6.06-13.135-1.767 1.767 2.873 2.874H11.056v2.499h16.161l-2.873 2.873 1.767 1.767L32 15.993l-5.889-5.89z" />
    </symbol>
    <symbol id="icon__logo" viewBox="0 0 32 32">
      <path fill="#24cca7" d="m3.755 7.619 16.211-4.537-.859-1.779C18.545.146 17.175-.331 16.047.245L1.534 7.62h2.219zM24.813 3.048a2.05 2.05 0 0 0-.586.087L9.215 7.619h18.431l-.693-2.779c-.266-1.083-1.163-1.793-2.14-1.793z" style="fill:var(--color7, #24cca7)"/>
      <path fill="#4a56e2" d="M28.36 8.573H1.801A1.799 1.799 0 0 0 0 10.355v19.862A1.79 1.79 0 0 0 1.797 32h26.559a1.79 1.79 0 0 0 1.797-1.783v-4.973H19.491c-1.685 0-3.054-1.358-3.054-3.03V18.25c0-.82.331-1.565.866-2.111a3.03 3.03 0 0 1 2.185-.916h10.666v-4.867a1.785 1.785 0 0 0-1.793-1.783z" style="fill:var(--color2, #4a56e2)"/>
      <path fill="#4a56e2" d="M31.414 16.926a1.804 1.804 0 0 0-1.211-.467H19.491a1.79 1.79 0 0 0-1.797 1.783v3.968a1.79 1.79 0 0 0 1.797 1.783h10.712c.205 0 .399-.036.582-.096.237-.078.449-.207.629-.371.359-.324.586-.795.586-1.316v-3.968c0-.52-.226-.991-.586-1.316zm-8.171 3.655a.895.895 0 0 1-.898.891h-.596a.895.895 0 0 1-.898-.891v-.592c0-.285.133-.538.345-.699a.911.911 0 0 1 .553-.193h.596c.496 0 .898.399.898.891v.592z" style="fill:var(--color2, #4a56e2)"/>
    </symbol>
    <symbol id="icon__slash" viewBox="0 0 16 32">
      <path stroke="#e0e0e0" stroke-width="2.909" d="M13.529 1.597 2.471 30.403" />
    </symbol>
     <symbol id="icon__big-logo" viewBox="0 0 33 32">

      </symbol>
  </defs>
</svg>
